/vscmnt/brussel_pixiu_data/_data_brussel/112/vsc11236/PredSimResults/SUBJ06mtu3D/worker6.mot
version=1
nRows=4
nColumns=50
inDegrees=yes
endheader
                time	         pelvis_tilt	         pelvis_list	     pelvis_rotation	           pelvis_tx	           pelvis_ty	           pelvis_tz	       hip_flexion_r	     hip_adduction_r	      hip_rotation_r	        knee_angle_r	       ankle_angle_r	         mtp_angle_r	       hip_flexion_l	     hip_adduction_l	      hip_rotation_l	        knee_angle_l	       ankle_angle_l	         mtp_angle_l	    lumbar_extension	      lumbar_bending	     lumbar_rotation	 ercspn_r/activation	 intobl_r/activation	 extobl_r/activation	    abd_r/activation	    add_r/activation	hamstrings_r/activation	bifemsh_r/activation	glut_max_r/activation	iliopsoas_r/activation	rect_fem_r/activation	  vasti_r/activation	gastroc_r/activation	 soleus_r/activation	tib_ant_r/activation	 ercspn_l/activation	 intobl_l/activation	 extobl_l/activation	    abd_l/activation	    add_l/activation	hamstrings_l/activation	bifemsh_l/activation	glut_max_l/activation	iliopsoas_l/activation	rect_fem_l/activation	  vasti_l/activation	gastroc_l/activation	 soleus_l/activation	tib_ant_l/activation	
          0.00000000	         -6.80582298	         -1.70880451	          4.85970302	          0.00000000	          0.92729685	         -0.01131006	         31.67567393	          0.27885233	         -2.30041133	         -5.32038049	          3.94614168	          0.22701233	        -11.21978797	         -0.90666054	          0.65707139	         -8.56503997	          9.71735017	         30.42541521	         -5.01015924	          0.40248840	          0.42264575	          0.13087977	          0.11954954	          0.01000118	          0.01000016	          0.20508207	          0.16000479	          0.21260966	          0.06354872	          0.16469876	          0.01001142	          0.01000051	          0.03560502	          0.01464039	          0.40897514	          0.10171418	          0.01000058	          0.01000087	          0.05556190	          0.03041564	          0.01292559	          0.13570414	          0.04592253	          0.46495361	          0.01211362	          0.01000320	          0.38792958	          0.32011990	          0.01523778	
          0.01259445	         -6.87459155	         -1.62370324	          4.86075951	          0.01752774	          0.92526780	         -0.01055803	         31.69436268	          0.35284125	         -2.14058407	         -7.12637147	          3.60247020	          0.19241296	        -11.49909975	         -0.90938103	          0.21495632	         -9.88548416	          8.90670850	         32.41726337	         -4.64003800	          0.66007798	          0.03360493	          0.10817712	          0.11521316	          0.01000104	          0.04173558	          0.16950316	          0.14565072	          0.17572594	          0.09799123	          0.13612514	          0.01000123	          0.01000040	          0.02942803	          0.01210091	          0.47246372	          0.09774052	          0.01000047	          0.01000127	          0.04592249	          0.03100063	          0.01859691	          0.11216122	          0.03795557	          0.46279306	          0.01002187	          0.01634754	          0.35745799	          0.29894034	          0.01259420	
          0.02518890	         -6.93052832	         -1.55354157	          4.82230544	          0.03520324	          0.92365292	         -0.00968709	         31.54997097	          0.43635037	         -2.02425603	         -8.64298360	          3.07780384	          0.18206873	        -11.53116210	         -0.93714908	         -0.24369923	        -11.66198437	          7.91900490	         34.49055368	         -4.27422219	          0.93768033	         -0.34075094	          0.12497076	          0.09522513	          0.01000104	          0.10126445	          0.19391025	          0.12887601	          0.14524062	          0.14130607	          0.11250878	          0.01000083	          0.01000023	          0.02432267	          0.01000170	          0.51914155	          0.11427267	          0.01000049	          0.01000094	          0.03795541	          0.02566343	          0.04170105	          0.09270276	          0.03137074	          0.45418489	          0.01034436	          0.01771692	          0.31099440	          0.25615924	          0.01040928	
          0.03778335	         -6.97255154	         -1.49147710	          4.74929622	          0.05279992	          0.92260805	         -0.00871572	         31.34277107	          0.53729125	         -1.94379400	        -10.05853663	          2.55896284	          0.14894832	        -11.24305538	         -0.98563854	         -0.72597385	        -13.99060087	          6.72019898	         36.57538173	         -3.93766415	          1.22895364	         -0.69733976	          0.13562723	          0.07870468	          0.01000095	          0.14793296	          0.24810133	          0.11260630	          0.12004354	          0.18433652	          0.09298962	          0.01000150	          0.01266530	          0.02010316	          0.01003340	          0.54468651	          0.14618042	          0.01000056	          0.01000086	          0.03137053	          0.07613475	          0.04087069	          0.07662027	          0.02592827	          0.43274764	          0.01003632	          0.01464344	          0.25704004	          0.21171825	          0.01000015	
